<svg id="Layer_1" data-name="Layer 1" xmlns="http://www.w3.org/2000/svg" viewBox="0 0 147.9 47.71"><defs><style>.cls-1{fill:#fff;}</style></defs><path class="cls-1" d="M36.59,10.88,27.36,14Q25.5,8.48,19.48,8.48c-4.28,0-6.43,1.39-6.43,4.17a3.77,3.77,0,0,0,1.21,2.81q1.2,1.16,5.43,2a54.46,54.46,0,0,1,10.36,2.89A13.29,13.29,0,0,1,35.59,25a12.42,12.42,0,0,1,2.25,7.24A14.46,14.46,0,0,1,33,43.13q-4.83,4.57-14.31,4.58A21.78,21.78,0,0,1,6.59,44.47,15.38,15.38,0,0,1,0,34.86l10-2.28q1.68,6.48,9.4,6.48c2.49,0,4.33-.48,5.55-1.44a4.27,4.27,0,0,0,1.83-3.44A3.59,3.59,0,0,0,25.16,31c-1.1-.74-3.24-1.44-6.4-2.1q-8.84-1.83-12.59-5c-2.51-2.11-3.76-5.21-3.76-9.27A13.72,13.72,0,0,1,6.9,4.24Q11.39,0,19.07,0,32.69,0,36.59,10.88Z"/><path class="cls-1" d="M55.74.71V47H44.93V.71Z"/><path class="cls-1" d="M76,28.65V47H65V.71H85.38a25.75,25.75,0,0,1,9,1.31,11.55,11.55,0,0,1,5.65,4.79,14.09,14.09,0,0,1,2.24,7.76q0,8.34-8,12L102.81,47h-12L83.72,28.65ZM76,9v11.8H82.6a17.31,17.31,0,0,0,4.73-.46,5.21,5.21,0,0,0,2.63-2,6,6,0,0,0,1.15-3.61A5.65,5.65,0,0,0,90,11.19a4.71,4.71,0,0,0-2.51-1.88A23.51,23.51,0,0,0,82.36,9Z"/><path class="cls-1" d="M133.42.71,147.9,47H136.25l-2.85-9.53h-15L115.53,47H106L120.86.71ZM121,28.92h9.8L126,12.68Z"/></svg>